
<global>
ampeg_attack=0.001
ampeg_release=1.5
</global>

<group>
color=red
group_label=MainHits_RR1
seq_length=8
seq_position=1

<region>
hivel=103
key=D3
lovel=78
offset=481
sample=Bass_a3_HardMallets_Center_Hits_F_D4_RR1.opus
</region>

<region>
hivel=127
key=D3
lovel=104
offset=481
sample=Bass_a3_HardMallets_Center_Hits_FF_D4_RR1.opus
</region>

<region>
hivel=77
key=D3
lovel=52
offset=481
sample=Bass_a3_HardMallets_Center_Hits_MF_D4_RR1.opus
</region>

<region>
hivel=51
key=D3
lovel=26
offset=481
sample=Bass_a3_HardMallets_Center_Hits_MP_D4_RR1.opus
</region>

<region>
hivel=25
key=D3
lovel=0
offset=482
sample=Bass_a3_HardMallets_Center_Hits_P_D4_RR1.opus
</region>

<region>
hivel=103
key=E3
lovel=78
offset=495
sample=Bass_a3_HardMallets_Edge_Hits_F_D4_RR1.opus
</region>

<region>
hivel=127
key=E3
lovel=104
offset=506
sample=Bass_a3_HardMallets_Edge_Hits_FF_D4_RR1.opus
</region>

<region>
hivel=77
key=E3
lovel=52
offset=488
sample=Bass_a3_HardMallets_Edge_Hits_MF_D4_RR1.opus
</region>

<region>
hivel=51
key=E3
lovel=26
offset=7171
sample=Bass_a3_HardMallets_Edge_Hits_MP_D4_RR1.opus
</region>

<region>
hivel=25
key=E3
lovel=0
offset=6269
sample=Bass_a3_HardMallets_Edge_Hits_P_D4_RR1.opus
</region>

<region>
hivel=103
key=D#3
lovel=78
offset=488
sample=Bass_a3_HardMallets_Halfway_Hits_F_D4_RR1.opus
</region>

<region>
hivel=127
key=D#3
lovel=104
offset=487
sample=Bass_a3_HardMallets_Halfway_Hits_FF_D4_RR1.opus
</region>

<region>
hivel=77
key=D#3
lovel=52
offset=481
sample=Bass_a3_HardMallets_Halfway_Hits_MF_D4_RR1.opus
</region>

<region>
hivel=51
key=D#3
lovel=26
offset=481
sample=Bass_a3_HardMallets_Halfway_Hits_MP_D4_RR1.opus
</region>

<region>
hivel=25
key=D#3
lovel=0
offset=481
sample=Bass_a3_HardMallets_Halfway_Hits_P_D4_RR1.opus
</region>
</group>

<group>
color=red
group_label=MainHits_RR2
seq_length=8
seq_position=2

<region>
hivel=103
key=D3
lovel=78
offset=481
sample=Bass_a3_HardMallets_Center_Hits_F_D4_RR2.opus
</region>

<region>
hivel=127
key=D3
lovel=104
offset=481
sample=Bass_a3_HardMallets_Center_Hits_FF_D4_RR2.opus
</region>

<region>
hivel=77
key=D3
lovel=52
offset=481
sample=Bass_a3_HardMallets_Center_Hits_MF_D4_RR2.opus
</region>

<region>
hivel=51
key=D3
lovel=26
offset=481
sample=Bass_a3_HardMallets_Center_Hits_MP_D4_RR2.opus
</region>

<region>
hivel=25
key=D3
lovel=0
offset=482
sample=Bass_a3_HardMallets_Center_Hits_P_D4_RR2.opus
</region>

<region>
hivel=103
key=E3
lovel=78
offset=544
sample=Bass_a3_HardMallets_Edge_Hits_F_D4_RR2.opus
</region>

<region>
hivel=127
key=E3
lovel=104
offset=1201
sample=Bass_a3_HardMallets_Edge_Hits_FF_D4_RR2.opus
</region>

<region>
hivel=77
key=E3
lovel=52
offset=390
sample=Bass_a3_HardMallets_Edge_Hits_MF_D4_RR2.opus
</region>

<region>
hivel=51
key=E3
lovel=26
offset=6687
sample=Bass_a3_HardMallets_Edge_Hits_MP_D4_RR2.opus
</region>

<region>
hivel=25
key=E3
lovel=0
offset=5692
sample=Bass_a3_HardMallets_Edge_Hits_P_D4_RR2.opus
</region>

<region>
hivel=103
key=D#3
lovel=78
offset=482
sample=Bass_a3_HardMallets_Halfway_Hits_F_D4_RR2.opus
</region>

<region>
hivel=127
key=D#3
lovel=104
offset=481
sample=Bass_a3_HardMallets_Halfway_Hits_FF_D4_RR2.opus
</region>

<region>
hivel=77
key=D#3
lovel=52
offset=480
sample=Bass_a3_HardMallets_Halfway_Hits_MF_D4_RR2.opus
</region>

<region>
hivel=51
key=D#3
lovel=26
offset=481
sample=Bass_a3_HardMallets_Halfway_Hits_MP_D4_RR2.opus
</region>

<region>
hivel=25
key=D#3
lovel=0
offset=481
sample=Bass_a3_HardMallets_Halfway_Hits_P_D4_RR2.opus
</region>
</group>

<group>
color=red
group_label=MainHits_RR3
seq_length=8
seq_position=3

<region>
hivel=103
key=D3
lovel=78
offset=481
sample=Bass_a3_HardMallets_Center_Hits_F_D4_RR3.opus
</region>

<region>
hivel=127
key=D3
lovel=104
offset=481
sample=Bass_a3_HardMallets_Center_Hits_FF_D4_RR3.opus
</region>

<region>
hivel=77
key=D3
lovel=52
offset=482
sample=Bass_a3_HardMallets_Center_Hits_MF_D4_RR3.opus
</region>

<region>
hivel=51
key=D3
lovel=26
offset=482
sample=Bass_a3_HardMallets_Center_Hits_MP_D4_RR3.opus
</region>

<region>
hivel=25
key=D3
lovel=0
offset=481
sample=Bass_a3_HardMallets_Center_Hits_P_D4_RR3.opus
</region>

<region>
hivel=103
key=E3
lovel=78
offset=492
sample=Bass_a3_HardMallets_Edge_Hits_F_D4_RR3.opus
</region>

<region>
hivel=127
key=E3
lovel=104
offset=480
sample=Bass_a3_HardMallets_Edge_Hits_FF_D4_RR3.opus
</region>

<region>
hivel=77
key=E3
lovel=52
offset=489
sample=Bass_a3_HardMallets_Edge_Hits_MF_D4_RR3.opus
</region>

<region>
hivel=51
key=E3
lovel=26
offset=7520
sample=Bass_a3_HardMallets_Edge_Hits_MP_D4_RR3.opus
</region>

<region>
hivel=25
key=E3
lovel=0
offset=7398
sample=Bass_a3_HardMallets_Edge_Hits_P_D4_RR3.opus
</region>

<region>
hivel=103
key=D#3
lovel=78
offset=481
sample=Bass_a3_HardMallets_Halfway_Hits_F_D4_RR3.opus
</region>

<region>
hivel=127
key=D#3
lovel=104
offset=489
sample=Bass_a3_HardMallets_Halfway_Hits_FF_D4_RR3.opus
</region>

<region>
hivel=77
key=D#3
lovel=52
offset=481
sample=Bass_a3_HardMallets_Halfway_Hits_MF_D4_RR3.opus
</region>

<region>
hivel=51
key=D#3
lovel=26
offset=481
sample=Bass_a3_HardMallets_Halfway_Hits_MP_D4_RR3.opus
</region>

<region>
hivel=25
key=D#3
lovel=0
offset=3176
sample=Bass_a3_HardMallets_Halfway_Hits_P_D4_RR3.opus
</region>
</group>

<group>
color=red
group_label=MainHits_RR4
seq_length=8
seq_position=4

<region>
hivel=103
key=D3
lovel=78
offset=481
sample=Bass_a3_HardMallets_Center_Hits_F_D4_RR4.opus
</region>

<region>
hivel=127
key=D3
lovel=104
offset=481
sample=Bass_a3_HardMallets_Center_Hits_FF_D4_RR4.opus
</region>

<region>
hivel=77
key=D3
lovel=52
offset=481
sample=Bass_a3_HardMallets_Center_Hits_MF_D4_RR4.opus
</region>

<region>
hivel=51
key=D3
lovel=26
offset=482
sample=Bass_a3_HardMallets_Center_Hits_MP_D4_RR4.opus
</region>

<region>
hivel=25
key=D3
lovel=0
offset=482
sample=Bass_a3_HardMallets_Center_Hits_P_D4_RR4.opus
</region>

<region>
hivel=103
key=E3
lovel=78
offset=480
sample=Bass_a3_HardMallets_Edge_Hits_F_D4_RR4.opus
</region>

<region>
hivel=127
key=E3
lovel=104
offset=1301
sample=Bass_a3_HardMallets_Edge_Hits_FF_D4_RR4.opus
</region>

<region>
hivel=77
key=E3
lovel=52
offset=481
sample=Bass_a3_HardMallets_Edge_Hits_MF_D4_RR4.opus
</region>

<region>
hivel=51
key=E3
lovel=26
offset=6050
sample=Bass_a3_HardMallets_Edge_Hits_MP_D4_RR4.opus
</region>

<region>
hivel=25
key=E3
lovel=0
offset=5586
sample=Bass_a3_HardMallets_Edge_Hits_P_D4_RR4.opus
</region>

<region>
hivel=103
key=D#3
lovel=78
offset=481
sample=Bass_a3_HardMallets_Halfway_Hits_F_D4_RR4.opus
</region>

<region>
hivel=127
key=D#3
lovel=104
offset=480
sample=Bass_a3_HardMallets_Halfway_Hits_FF_D4_RR4.opus
</region>

<region>
hivel=77
key=D#3
lovel=52
offset=481
sample=Bass_a3_HardMallets_Halfway_Hits_MF_D4_RR4.opus
</region>

<region>
hivel=51
key=D#3
lovel=26
offset=481
sample=Bass_a3_HardMallets_Halfway_Hits_MP_D4_RR4.opus
</region>

<region>
hivel=25
key=D#3
lovel=0
offset=482
sample=Bass_a3_HardMallets_Halfway_Hits_P_D4_RR4.opus
</region>
</group>

<group>
color=red
group_label=MainHits_RR5
seq_length=8
seq_position=5

<region>
hivel=103
key=D3
lovel=78
offset=481
sample=Bass_a3_HardMallets_Center_Hits_F_D4_RR5.opus
</region>

<region>
hivel=127
key=D3
lovel=104
offset=482
sample=Bass_a3_HardMallets_Center_Hits_FF_D4_RR5.opus
</region>

<region>
hivel=77
key=D3
lovel=52
offset=481
sample=Bass_a3_HardMallets_Center_Hits_MF_D4_RR5.opus
</region>

<region>
hivel=51
key=D3
lovel=26
offset=481
sample=Bass_a3_HardMallets_Center_Hits_MP_D4_RR5.opus
</region>

<region>
hivel=25
key=D3
lovel=0
offset=481
sample=Bass_a3_HardMallets_Center_Hits_P_D4_RR5.opus
</region>

<region>
hivel=103
key=E3
lovel=78
offset=493
sample=Bass_a3_HardMallets_Edge_Hits_F_D4_RR5.opus
</region>

<region>
hivel=127
key=E3
lovel=104
offset=1224
sample=Bass_a3_HardMallets_Edge_Hits_FF_D4_RR5.opus
</region>

<region>
hivel=77
key=E3
lovel=52
offset=480
sample=Bass_a3_HardMallets_Edge_Hits_MF_D4_RR5.opus
</region>

<region>
hivel=51
key=E3
lovel=26
offset=6034
sample=Bass_a3_HardMallets_Edge_Hits_MP_D4_RR5.opus
</region>

<region>
hivel=25
key=E3
lovel=0
offset=7089
sample=Bass_a3_HardMallets_Edge_Hits_P_D4_RR5.opus
</region>

<region>
hivel=103
key=D#3
lovel=78
offset=488
sample=Bass_a3_HardMallets_Halfway_Hits_F_D4_RR5.opus
</region>

<region>
hivel=127
key=D#3
lovel=104
offset=489
sample=Bass_a3_HardMallets_Halfway_Hits_FF_D4_RR5.opus
</region>

<region>
hivel=77
key=D#3
lovel=52
offset=481
sample=Bass_a3_HardMallets_Halfway_Hits_MF_D4_RR5.opus
</region>

<region>
hivel=51
key=D#3
lovel=26
offset=481
sample=Bass_a3_HardMallets_Halfway_Hits_MP_D4_RR5.opus
</region>

<region>
hivel=25
key=D#3
lovel=0
offset=4961
sample=Bass_a3_HardMallets_Halfway_Hits_P_D4_RR5.opus
</region>
</group>

<group>
color=red
group_label=MainHits_RR6
seq_length=8
seq_position=6

<region>
hivel=103
key=D3
lovel=78
offset=481
sample=Bass_a3_HardMallets_Center_Hits_F_D4_RR6.opus
</region>

<region>
hivel=127
key=D3
lovel=104
offset=482
sample=Bass_a3_HardMallets_Center_Hits_FF_D4_RR6.opus
</region>

<region>
hivel=77
key=D3
lovel=52
offset=481
sample=Bass_a3_HardMallets_Center_Hits_MF_D4_RR6.opus
</region>

<region>
hivel=51
key=D3
lovel=26
offset=481
sample=Bass_a3_HardMallets_Center_Hits_MP_D4_RR6.opus
</region>

<region>
hivel=25
key=D3
lovel=0
offset=482
sample=Bass_a3_HardMallets_Center_Hits_P_D4_RR6.opus
</region>

<region>
hivel=103
key=E3
lovel=78
offset=481
sample=Bass_a3_HardMallets_Edge_Hits_F_D4_RR6.opus
</region>

<region>
hivel=127
key=E3
lovel=104
offset=490
sample=Bass_a3_HardMallets_Edge_Hits_FF_D4_RR6.opus
</region>

<region>
hivel=77
key=E3
lovel=52
offset=481
sample=Bass_a3_HardMallets_Edge_Hits_MF_D4_RR6.opus
</region>

<region>
hivel=51
key=E3
lovel=26
offset=4680
sample=Bass_a3_HardMallets_Edge_Hits_MP_D4_RR6.opus
</region>

<region>
hivel=25
key=E3
lovel=0
offset=5889
sample=Bass_a3_HardMallets_Edge_Hits_P_D4_RR6.opus
</region>

<region>
hivel=103
key=D#3
lovel=78
offset=481
sample=Bass_a3_HardMallets_Halfway_Hits_F_D4_RR6.opus
</region>

<region>
hivel=127
key=D#3
lovel=104
offset=481
sample=Bass_a3_HardMallets_Halfway_Hits_FF_D4_RR6.opus
</region>

<region>
hivel=77
key=D#3
lovel=52
offset=481
sample=Bass_a3_HardMallets_Halfway_Hits_MF_D4_RR6.opus
</region>

<region>
hivel=51
key=D#3
lovel=26
offset=481
sample=Bass_a3_HardMallets_Halfway_Hits_MP_D4_RR6.opus
</region>

<region>
hivel=25
key=D#3
lovel=0
offset=481
sample=Bass_a3_HardMallets_Halfway_Hits_P_D4_RR6.opus
</region>
</group>

<group>
color=red
group_label=MainHits_RR7
seq_length=8
seq_position=7

<region>
hivel=103
key=D3
lovel=78
offset=482
sample=Bass_a3_HardMallets_Center_Hits_F_D4_RR7.opus
</region>

<region>
hivel=127
key=D3
lovel=104
offset=481
sample=Bass_a3_HardMallets_Center_Hits_FF_D4_RR7.opus
</region>

<region>
hivel=77
key=D3
lovel=52
offset=481
sample=Bass_a3_HardMallets_Center_Hits_MF_D4_RR7.opus
</region>

<region>
hivel=51
key=D3
lovel=26
offset=481
sample=Bass_a3_HardMallets_Center_Hits_MP_D4_RR7.opus
</region>

<region>
hivel=25
key=D3
lovel=0
offset=481
sample=Bass_a3_HardMallets_Center_Hits_P_D4_RR7.opus
</region>

<region>
hivel=103
key=E3
lovel=78
offset=481
sample=Bass_a3_HardMallets_Edge_Hits_F_D4_RR7.opus
</region>

<region>
hivel=127
key=E3
lovel=104
offset=480
sample=Bass_a3_HardMallets_Edge_Hits_FF_D4_RR7.opus
</region>

<region>
hivel=77
key=E3
lovel=52
offset=489
sample=Bass_a3_HardMallets_Edge_Hits_MF_D4_RR7.opus
</region>

<region>
hivel=51
key=E3
lovel=26
offset=3559
sample=Bass_a3_HardMallets_Edge_Hits_MP_D4_RR7.opus
</region>

<region>
hivel=25
key=E3
lovel=0
offset=6799
sample=Bass_a3_HardMallets_Edge_Hits_P_D4_RR7.opus
</region>

<region>
hivel=103
key=D#3
lovel=78
offset=487
sample=Bass_a3_HardMallets_Halfway_Hits_F_D4_RR7.opus
</region>

<region>
hivel=127
key=D#3
lovel=104
offset=488
sample=Bass_a3_HardMallets_Halfway_Hits_FF_D4_RR7.opus
</region>

<region>
hivel=77
key=D#3
lovel=52
offset=480
sample=Bass_a3_HardMallets_Halfway_Hits_MF_D4_RR7.opus
</region>

<region>
hivel=51
key=D#3
lovel=26
offset=481
sample=Bass_a3_HardMallets_Halfway_Hits_MP_D4_RR7.opus
</region>

<region>
hivel=25
key=D#3
lovel=0
offset=481
sample=Bass_a3_HardMallets_Halfway_Hits_P_D4_RR7.opus
</region>
</group>

<group>
color=red
group_label=MainHIts_RR8
seq_length=8
seq_position=8

<region>
hivel=103
key=D3
lovel=78
offset=481
sample=Bass_a3_HardMallets_Center_Hits_F_D4_RR8.opus
</region>

<region>
hivel=127
key=D3
lovel=104
offset=481
sample=Bass_a3_HardMallets_Center_Hits_FF_D4_RR8.opus
</region>

<region>
hivel=77
key=D3
lovel=52
offset=481
sample=Bass_a3_HardMallets_Center_Hits_MF_D4_RR8.opus
</region>

<region>
hivel=51
key=D3
lovel=26
offset=482
sample=Bass_a3_HardMallets_Center_Hits_MP_D4_RR8.opus
</region>

<region>
hivel=25
key=D3
lovel=0
offset=481
sample=Bass_a3_HardMallets_Center_Hits_P_D4_RR8.opus
</region>

<region>
hivel=103
key=E3
lovel=78
offset=481
sample=Bass_a3_HardMallets_Edge_Hits_F_D4_RR8.opus
</region>

<region>
hivel=127
key=E3
lovel=104
offset=505
sample=Bass_a3_HardMallets_Edge_Hits_FF_D4_RR8.opus
</region>

<region>
hivel=77
key=E3
lovel=52
offset=480
sample=Bass_a3_HardMallets_Edge_Hits_MF_D4_RR8.opus
</region>

<region>
hivel=51
key=E3
lovel=26
offset=5878
sample=Bass_a3_HardMallets_Edge_Hits_MP_D4_RR8.opus
</region>

<region>
hivel=25
key=E3
lovel=0
offset=7253
sample=Bass_a3_HardMallets_Edge_Hits_P_D4_RR8.opus
</region>

<region>
hivel=103
key=D#3
lovel=78
offset=480
sample=Bass_a3_HardMallets_Halfway_Hits_F_D4_RR8.opus
</region>

<region>
hivel=127
key=D#3
lovel=104
offset=481
sample=Bass_a3_HardMallets_Halfway_Hits_FF_D4_RR8.opus
</region>

<region>
hivel=77
key=D#3
lovel=52
offset=480
sample=Bass_a3_HardMallets_Halfway_Hits_MF_D4_RR8.opus
</region>

<region>
hivel=51
key=D#3
lovel=26
offset=480
sample=Bass_a3_HardMallets_Halfway_Hits_MP_D4_RR8.opus
</region>

<region>
hivel=25
key=D#3
lovel=0
offset=481
sample=Bass_a3_HardMallets_Halfway_Hits_P_D4_RR8.opus
</region>
</group>

<group>
color=green
group_label=AltHits_RR1
seq_length=4
seq_position=1

<region>
hivel=103
key=D4
lovel=78
offset=481
sample=Bass_a3_HardMallets_Center_Buzz_Stroke_F_D4_RR1.opus
</region>

<region>
hivel=127
key=D4
lovel=104
offset=481
sample=Bass_a3_HardMallets_Center_Buzz_Stroke_FF_D4_RR1.opus
</region>

<region>
hivel=77
key=D4
lovel=52
offset=482
sample=Bass_a3_HardMallets_Center_Buzz_Stroke_MF_D4_RR1.opus
</region>

<region>
hivel=51
key=D4
lovel=26
offset=482
sample=Bass_a3_HardMallets_Center_Buzz_Stroke_MP_D4_RR1.opus
</region>

<region>
hivel=25
key=D4
lovel=0
offset=483
sample=Bass_a3_HardMallets_Center_Buzz_Stroke_P_D4_RR1.opus
</region>

<region>
hivel=103
key=G4
lovel=78
offset=481
sample=Bass_a3_HardMallets_Center_Dry_Buzz_Stroke_F_D4_RR1.opus
</region>

<region>
hivel=127
key=G4
lovel=104
offset=482
sample=Bass_a3_HardMallets_Center_Dry_Buzz_Stroke_FF_D4_RR1.opus
</region>

<region>
hivel=77
key=G4
lovel=52
offset=481
sample=Bass_a3_HardMallets_Center_Dry_Buzz_Stroke_MF_D4_RR1.opus
</region>

<region>
hivel=51
key=G4
lovel=26
offset=481
sample=Bass_a3_HardMallets_Center_Dry_Buzz_Stroke_MP_D4_RR1.opus
</region>

<region>
hivel=25
key=G4
lovel=0
offset=483
sample=Bass_a3_HardMallets_Center_Dry_Buzz_Stroke_P_D4_RR1.opus
</region>

<region>
hivel=103
key=D5
lovel=78
offset=5327
sample=Bass_a3_HardMallets_Center_Rim Shot_F_D4_RR1.opus
</region>

<region>
hivel=127
key=D5
lovel=104
offset=484
sample=Bass_a3_HardMallets_Center_Rim Shot_FF_D4_RR1.opus
</region>

<region>
hivel=77
key=D5
lovel=52
offset=516
sample=Bass_a3_HardMallets_Center_Rim Shot_MF_D4_RR1.opus
</region>

<region>
hivel=51
key=D5
lovel=26
offset=6756
sample=Bass_a3_HardMallets_Center_Rim Shot_MP_D4_RR1.opus
</region>

<region>
hivel=25
key=D5
lovel=0
offset=5723
sample=Bass_a3_HardMallets_Center_Rim Shot_P_D4_RR1.opus
</region>

<region>
hivel=103
key=D#5
lovel=78
offset=4743
sample=Bass_a3_HardMallets_Center_Rim_Hit_F_D4_RR1.opus
</region>

<region>
hivel=127
key=D#5
lovel=104
offset=4953
sample=Bass_a3_HardMallets_Center_Rim_Hit_FF_D4_RR1.opus
</region>

<region>
hivel=77
key=D#5
lovel=52
offset=5026
sample=Bass_a3_HardMallets_Center_Rim_Hit_MF_D4_RR1.opus
</region>

<region>
hivel=51
key=D#5
lovel=26
offset=5015
sample=Bass_a3_HardMallets_Center_Rim_Hit_MP_D4_RR1.opus
</region>

<region>
hivel=25
key=D#5
lovel=0
offset=5618
sample=Bass_a3_HardMallets_Center_Rim_Hit_P_D4_RR1.opus
</region>

<region>
hivel=103
key=D6
lovel=78
offset=5284
sample=Bass_a3_HardMallets_Center_Shell_F_D4_RR1.opus
</region>

<region>
hivel=127
key=D6
lovel=104
offset=8177
sample=Bass_a3_HardMallets_Center_Shell_FF_D4_RR1.opus
</region>

<region>
hivel=77
key=D6
lovel=52
offset=5970
sample=Bass_a3_HardMallets_Center_Shell_MF_D4_RR1.opus
</region>

<region>
hivel=51
key=D6
lovel=26
offset=6329
sample=Bass_a3_HardMallets_Center_Shell_MP_D4_RR1.opus
</region>

<region>
hivel=25
key=D6
lovel=0
offset=4693
sample=Bass_a3_HardMallets_Center_Shell_P_D4_RR1.opus
</region>

<region>
hivel=103
key=E4
lovel=78
offset=481
sample=Bass_a3_HardMallets_Edge_Buzz_Stroke_F_D4_RR1.opus
</region>

<region>
hivel=127
key=E4
lovel=104
offset=481
sample=Bass_a3_HardMallets_Edge_Buzz_Stroke_FF_D4_RR1.opus
</region>

<region>
hivel=77
key=E4
lovel=52
offset=462
sample=Bass_a3_HardMallets_Edge_Buzz_Stroke_MF_D4_RR1.opus
</region>

<region>
hivel=51
key=E4
lovel=26
offset=482
sample=Bass_a3_HardMallets_Edge_Buzz_Stroke_MP_D4_RR1.opus
</region>

<region>
hivel=25
key=E4
lovel=0
offset=6472
sample=Bass_a3_HardMallets_Edge_Buzz_Stroke_P_D4_RR1.opus
</region>

<region>
hivel=103
key=A4
lovel=78
offset=481
sample=Bass_a3_HardMallets_Edge_Dry_Buzz_Stroke_F_D4_RR1.opus
</region>

<region>
hivel=127
key=A4
lovel=104
offset=481
sample=Bass_a3_HardMallets_Edge_Dry_Buzz_Stroke_FF_D4_RR1.opus
</region>

<region>
hivel=77
key=A4
lovel=52
offset=480
sample=Bass_a3_HardMallets_Edge_Dry_Buzz_Stroke_MF_D4_RR1.opus
</region>

<region>
hivel=51
key=A4
lovel=26
offset=7205
sample=Bass_a3_HardMallets_Edge_Dry_Buzz_Stroke_MP_D4_RR1.opus
</region>

<region>
hivel=25
key=A4
lovel=0
offset=5825
sample=Bass_a3_HardMallets_Edge_Dry_Buzz_Stroke_P_D4_RR1.opus
</region>

<region>
hivel=103
key=D#4
lovel=78
offset=481
sample=Bass_a3_HardMallets_Halfway_Buzz_Stroke_F_D4_RR1.opus
</region>

<region>
hivel=127
key=D#4
lovel=104
offset=481
sample=Bass_a3_HardMallets_Halfway_Buzz_Stroke_FF_D4_RR1.opus
</region>

<region>
hivel=77
key=D#4
lovel=52
offset=482
sample=Bass_a3_HardMallets_Halfway_Buzz_Stroke_MF_D4_RR1.opus
</region>

<region>
hivel=51
key=D#4
lovel=26
offset=481
sample=Bass_a3_HardMallets_Halfway_Buzz_Stroke_MP_D4_RR1.opus
</region>

<region>
hivel=25
key=D#4
lovel=0
offset=7000
sample=Bass_a3_HardMallets_Halfway_Buzz_Stroke_P_D4_RR1.opus
</region>

<region>
hivel=103
key=G#4
lovel=78
offset=482
sample=Bass_a3_HardMallets_Halfway_Dry_Buzz_Stroke_F_D4_RR1.opus
</region>

<region>
hivel=127
key=G#4
lovel=104
offset=481
sample=Bass_a3_HardMallets_Halfway_Dry_Buzz_Stroke_FF_D4_RR1.opus
</region>

<region>
hivel=77
key=G#4
lovel=52
offset=481
sample=Bass_a3_HardMallets_Halfway_Dry_Buzz_Stroke_MF_D4_RR1.opus
</region>

<region>
hivel=51
key=G#4
lovel=26
offset=481
sample=Bass_a3_HardMallets_Halfway_Dry_Buzz_Stroke_MP_D4_RR1.opus
</region>

<region>
hivel=25
key=G#4
lovel=0
offset=4246
sample=Bass_a3_HardMallets_Halfway_Dry_Buzz_Stroke_P_D4_RR1.opus
</region>
</group>

<group>
color=green
group_label=AltHits_RR2
seq_length=4
seq_position=2

<region>
hivel=103
key=D4
lovel=78
offset=481
sample=Bass_a3_HardMallets_Center_Buzz_Stroke_F_D4_RR2.opus
</region>

<region>
hivel=127
key=D4
lovel=104
offset=481
sample=Bass_a3_HardMallets_Center_Buzz_Stroke_FF_D4_RR2.opus
</region>

<region>
hivel=77
key=D4
lovel=52
offset=482
sample=Bass_a3_HardMallets_Center_Buzz_Stroke_MF_D4_RR2.opus
</region>

<region>
hivel=51
key=D4
lovel=26
offset=482
sample=Bass_a3_HardMallets_Center_Buzz_Stroke_MP_D4_RR2.opus
</region>

<region>
hivel=25
key=D4
lovel=0
offset=482
sample=Bass_a3_HardMallets_Center_Buzz_Stroke_P_D4_RR2.opus
</region>

<region>
hivel=103
key=G4
lovel=78
offset=481
sample=Bass_a3_HardMallets_Center_Dry_Buzz_Stroke_F_D4_RR2.opus
</region>

<region>
hivel=127
key=G4
lovel=104
offset=481
sample=Bass_a3_HardMallets_Center_Dry_Buzz_Stroke_FF_D4_RR2.opus
</region>

<region>
hivel=77
key=G4
lovel=52
offset=481
sample=Bass_a3_HardMallets_Center_Dry_Buzz_Stroke_MF_D4_RR2.opus
</region>

<region>
hivel=51
key=G4
lovel=26
offset=482
sample=Bass_a3_HardMallets_Center_Dry_Buzz_Stroke_MP_D4_RR2.opus
</region>

<region>
hivel=25
key=G4
lovel=0
offset=482
sample=Bass_a3_HardMallets_Center_Dry_Buzz_Stroke_P_D4_RR2.opus
</region>

<region>
hivel=103
key=D5
lovel=78
offset=485
sample=Bass_a3_HardMallets_Center_Rim Shot_F_D4_RR2.opus
</region>

<region>
hivel=127
key=D5
lovel=104
offset=374
sample=Bass_a3_HardMallets_Center_Rim Shot_FF_D4_RR2.opus
</region>

<region>
hivel=77
key=D5
lovel=52
offset=375
sample=Bass_a3_HardMallets_Center_Rim Shot_MF_D4_RR2.opus
</region>

<region>
hivel=51
key=D5
lovel=26
offset=514
sample=Bass_a3_HardMallets_Center_Rim Shot_MP_D4_RR2.opus
</region>

<region>
hivel=25
key=D5
lovel=0
offset=5290
sample=Bass_a3_HardMallets_Center_Rim Shot_P_D4_RR2.opus
</region>

<region>
hivel=103
key=D#5
lovel=78
offset=5003
sample=Bass_a3_HardMallets_Center_Rim_Hit_F_D4_RR2.opus
</region>

<region>
hivel=127
key=D#5
lovel=104
offset=5723
sample=Bass_a3_HardMallets_Center_Rim_Hit_FF_D4_RR2.opus
</region>

<region>
hivel=77
key=D#5
lovel=52
offset=6426
sample=Bass_a3_HardMallets_Center_Rim_Hit_MF_D4_RR2.opus
</region>

<region>
hivel=51
key=D#5
lovel=26
offset=7109
sample=Bass_a3_HardMallets_Center_Rim_Hit_MP_D4_RR2.opus
</region>

<region>
hivel=25
key=D#5
lovel=0
offset=5130
sample=Bass_a3_HardMallets_Center_Rim_Hit_P_D4_RR2.opus
</region>

<region>
hivel=103
key=D6
lovel=78
offset=5819
sample=Bass_a3_HardMallets_Center_Shell_F_D4_RR2.opus
</region>

<region>
hivel=127
key=D6
lovel=104
offset=7204
sample=Bass_a3_HardMallets_Center_Shell_FF_D4_RR2.opus
</region>

<region>
hivel=77
key=D6
lovel=52
offset=6015
sample=Bass_a3_HardMallets_Center_Shell_MF_D4_RR2.opus
</region>

<region>
hivel=51
key=D6
lovel=26
offset=6075
sample=Bass_a3_HardMallets_Center_Shell_MP_D4_RR2.opus
</region>

<region>
hivel=25
key=D6
lovel=0
offset=4884
sample=Bass_a3_HardMallets_Center_Shell_P_D4_RR2.opus
</region>

<region>
hivel=103
key=E4
lovel=78
offset=481
sample=Bass_a3_HardMallets_Edge_Buzz_Stroke_F_D4_RR2.opus
</region>

<region>
hivel=127
key=E4
lovel=104
offset=481
sample=Bass_a3_HardMallets_Edge_Buzz_Stroke_FF_D4_RR2.opus
</region>

<region>
hivel=77
key=E4
lovel=52
offset=481
sample=Bass_a3_HardMallets_Edge_Buzz_Stroke_MF_D4_RR2.opus
</region>

<region>
hivel=51
key=E4
lovel=26
offset=682
sample=Bass_a3_HardMallets_Edge_Buzz_Stroke_MP_D4_RR2.opus
</region>

<region>
hivel=25
key=E4
lovel=0
offset=8515
sample=Bass_a3_HardMallets_Edge_Buzz_Stroke_P_D4_RR2.opus
</region>

<region>
hivel=103
key=A4
lovel=78
offset=481
sample=Bass_a3_HardMallets_Edge_Dry_Buzz_Stroke_F_D4_RR2.opus
</region>

<region>
hivel=127
key=A4
lovel=104
offset=614
sample=Bass_a3_HardMallets_Edge_Dry_Buzz_Stroke_FF_D4_RR2.opus
</region>

<region>
hivel=77
key=A4
lovel=52
offset=481
sample=Bass_a3_HardMallets_Edge_Dry_Buzz_Stroke_MF_D4_RR2.opus
</region>

<region>
hivel=51
key=A4
lovel=26
offset=4912
sample=Bass_a3_HardMallets_Edge_Dry_Buzz_Stroke_MP_D4_RR2.opus
</region>

<region>
hivel=25
key=A4
lovel=0
offset=4778
sample=Bass_a3_HardMallets_Edge_Dry_Buzz_Stroke_P_D4_RR2.opus
</region>

<region>
hivel=103
key=D#4
lovel=78
offset=481
sample=Bass_a3_HardMallets_Halfway_Buzz_Stroke_F_D4_RR2.opus
</region>

<region>
hivel=127
key=D#4
lovel=104
offset=481
sample=Bass_a3_HardMallets_Halfway_Buzz_Stroke_FF_D4_RR2.opus
</region>

<region>
hivel=77
key=D#4
lovel=52
offset=481
sample=Bass_a3_HardMallets_Halfway_Buzz_Stroke_MF_D4_RR2.opus
</region>

<region>
hivel=51
key=D#4
lovel=26
offset=482
sample=Bass_a3_HardMallets_Halfway_Buzz_Stroke_MP_D4_RR2.opus
</region>

<region>
hivel=25
key=D#4
lovel=0
offset=482
sample=Bass_a3_HardMallets_Halfway_Buzz_Stroke_P_D4_RR2.opus
</region>

<region>
hivel=103
key=G#4
lovel=78
offset=481
sample=Bass_a3_HardMallets_Halfway_Dry_Buzz_Stroke_F_D4_RR2.opus
</region>

<region>
hivel=127
key=G#4
lovel=104
offset=481
sample=Bass_a3_HardMallets_Halfway_Dry_Buzz_Stroke_FF_D4_RR2.opus
</region>

<region>
hivel=77
key=G#4
lovel=52
offset=481
sample=Bass_a3_HardMallets_Halfway_Dry_Buzz_Stroke_MF_D4_RR2.opus
</region>

<region>
hivel=51
key=G#4
lovel=26
offset=482
sample=Bass_a3_HardMallets_Halfway_Dry_Buzz_Stroke_MP_D4_RR2.opus
</region>

<region>
hivel=25
key=G#4
lovel=0
offset=483
sample=Bass_a3_HardMallets_Halfway_Dry_Buzz_Stroke_P_D4_RR2.opus
</region>
</group>

<group>
color=green
group_label=AltHits_RR3
seq_length=4
seq_position=3

<region>
hivel=103
key=D4
lovel=78
offset=482
sample=Bass_a3_HardMallets_Center_Buzz_Stroke_F_D4_RR3.opus
</region>

<region>
hivel=127
key=D4
lovel=104
offset=481
sample=Bass_a3_HardMallets_Center_Buzz_Stroke_FF_D4_RR3.opus
</region>

<region>
hivel=77
key=D4
lovel=52
offset=482
sample=Bass_a3_HardMallets_Center_Buzz_Stroke_MF_D4_RR3.opus
</region>

<region>
hivel=51
key=D4
lovel=26
offset=482
sample=Bass_a3_HardMallets_Center_Buzz_Stroke_MP_D4_RR3.opus
</region>

<region>
hivel=25
key=D4
lovel=0
offset=483
sample=Bass_a3_HardMallets_Center_Buzz_Stroke_P_D4_RR3.opus
</region>

<region>
hivel=103
key=G4
lovel=78
offset=482
sample=Bass_a3_HardMallets_Center_Dry_Buzz_Stroke_F_D4_RR3.opus
</region>

<region>
hivel=127
key=G4
lovel=104
offset=482
sample=Bass_a3_HardMallets_Center_Dry_Buzz_Stroke_FF_D4_RR3.opus
</region>

<region>
hivel=77
key=G4
lovel=52
offset=482
sample=Bass_a3_HardMallets_Center_Dry_Buzz_Stroke_MF_D4_RR3.opus
</region>

<region>
hivel=51
key=G4
lovel=26
offset=482
sample=Bass_a3_HardMallets_Center_Dry_Buzz_Stroke_MP_D4_RR3.opus
</region>

<region>
hivel=25
key=G4
lovel=0
offset=579
sample=Bass_a3_HardMallets_Center_Dry_Buzz_Stroke_P_D4_RR3.opus
</region>

<region>
hivel=103
key=D5
lovel=78
offset=490
sample=Bass_a3_HardMallets_Center_Rim Shot_F_D4_RR3.opus
</region>

<region>
hivel=127
key=D5
lovel=104
offset=514
sample=Bass_a3_HardMallets_Center_Rim Shot_FF_D4_RR3.opus
</region>

<region>
hivel=77
key=D5
lovel=52
offset=481
sample=Bass_a3_HardMallets_Center_Rim Shot_MF_D4_RR3.opus
</region>

<region>
hivel=51
key=D5
lovel=26
offset=390
sample=Bass_a3_HardMallets_Center_Rim Shot_MP_D4_RR3.opus
</region>

<region>
hivel=25
key=D5
lovel=0
offset=6133
sample=Bass_a3_HardMallets_Center_Rim Shot_P_D4_RR3.opus
</region>

<region>
hivel=103
key=D#5
lovel=78
offset=4959
sample=Bass_a3_HardMallets_Center_Rim_Hit_F_D4_RR3.opus
</region>

<region>
hivel=127
key=D#5
lovel=104
offset=6464
sample=Bass_a3_HardMallets_Center_Rim_Hit_FF_D4_RR3.opus
</region>

<region>
hivel=77
key=D#5
lovel=52
offset=7403
sample=Bass_a3_HardMallets_Center_Rim_Hit_MF_D4_RR3.opus
</region>

<region>
hivel=51
key=D#5
lovel=26
offset=6754
sample=Bass_a3_HardMallets_Center_Rim_Hit_MP_D4_RR3.opus
</region>

<region>
hivel=25
key=D#5
lovel=0
offset=6661
sample=Bass_a3_HardMallets_Center_Rim_Hit_P_D4_RR3.opus
</region>

<region>
hivel=103
key=D6
lovel=78
offset=4768
sample=Bass_a3_HardMallets_Center_Shell_F_D4_RR3.opus
</region>

<region>
hivel=127
key=D6
lovel=104
offset=5815
sample=Bass_a3_HardMallets_Center_Shell_FF_D4_RR3.opus
</region>

<region>
hivel=77
key=D6
lovel=52
offset=6147
sample=Bass_a3_HardMallets_Center_Shell_MF_D4_RR3.opus
</region>

<region>
hivel=51
key=D6
lovel=26
offset=5960
sample=Bass_a3_HardMallets_Center_Shell_MP_D4_RR3.opus
</region>

<region>
hivel=25
key=D6
lovel=0
offset=5394
sample=Bass_a3_HardMallets_Center_Shell_P_D4_RR3.opus
</region>

<region>
hivel=103
key=E4
lovel=78
offset=481
sample=Bass_a3_HardMallets_Edge_Buzz_Stroke_F_D4_RR3.opus
</region>

<region>
hivel=127
key=E4
lovel=104
offset=481
sample=Bass_a3_HardMallets_Edge_Buzz_Stroke_FF_D4_RR3.opus
</region>

<region>
hivel=77
key=E4
lovel=52
offset=480
sample=Bass_a3_HardMallets_Edge_Buzz_Stroke_MF_D4_RR3.opus
</region>

<region>
hivel=51
key=E4
lovel=26
offset=6300
sample=Bass_a3_HardMallets_Edge_Buzz_Stroke_MP_D4_RR3.opus
</region>

<region>
hivel=25
key=E4
lovel=0
offset=6994
sample=Bass_a3_HardMallets_Edge_Buzz_Stroke_P_D4_RR3.opus
</region>

<region>
hivel=103
key=A4
lovel=78
offset=481
sample=Bass_a3_HardMallets_Edge_Dry_Buzz_Stroke_F_D4_RR3.opus
</region>

<region>
hivel=127
key=A4
lovel=104
offset=481
sample=Bass_a3_HardMallets_Edge_Dry_Buzz_Stroke_FF_D4_RR3.opus
</region>

<region>
hivel=77
key=A4
lovel=52
offset=480
sample=Bass_a3_HardMallets_Edge_Dry_Buzz_Stroke_MF_D4_RR3.opus
</region>

<region>
hivel=51
key=A4
lovel=26
offset=6270
sample=Bass_a3_HardMallets_Edge_Dry_Buzz_Stroke_MP_D4_RR3.opus
</region>

<region>
hivel=25
key=A4
lovel=0
offset=6677
sample=Bass_a3_HardMallets_Edge_Dry_Buzz_Stroke_P_D4_RR3.opus
</region>

<region>
hivel=103
key=D#4
lovel=78
offset=481
sample=Bass_a3_HardMallets_Halfway_Buzz_Stroke_F_D4_RR3.opus
</region>

<region>
hivel=127
key=D#4
lovel=104
offset=481
sample=Bass_a3_HardMallets_Halfway_Buzz_Stroke_FF_D4_RR3.opus
</region>

<region>
hivel=77
key=D#4
lovel=52
offset=481
sample=Bass_a3_HardMallets_Halfway_Buzz_Stroke_MF_D4_RR3.opus
</region>

<region>
hivel=51
key=D#4
lovel=26
offset=482
sample=Bass_a3_HardMallets_Halfway_Buzz_Stroke_MP_D4_RR3.opus
</region>

<region>
hivel=25
key=D#4
lovel=0
offset=481
sample=Bass_a3_HardMallets_Halfway_Buzz_Stroke_P_D4_RR3.opus
</region>

<region>
hivel=103
key=G#4
lovel=78
offset=481
sample=Bass_a3_HardMallets_Halfway_Dry_Buzz_Stroke_F_D4_RR3.opus
</region>

<region>
hivel=127
key=G#4
lovel=104
offset=481
sample=Bass_a3_HardMallets_Halfway_Dry_Buzz_Stroke_FF_D4_RR3.opus
</region>

<region>
hivel=77
key=G#4
lovel=52
offset=481
sample=Bass_a3_HardMallets_Halfway_Dry_Buzz_Stroke_MF_D4_RR3.opus
</region>

<region>
hivel=51
key=G#4
lovel=26
offset=481
sample=Bass_a3_HardMallets_Halfway_Dry_Buzz_Stroke_MP_D4_RR3.opus
</region>

<region>
hivel=25
key=G#4
lovel=0
offset=484
sample=Bass_a3_HardMallets_Halfway_Dry_Buzz_Stroke_P_D4_RR3.opus
</region>
</group>

<group>
color=green
group_label=AltHits_RR4
seq_length=4
seq_position=4

<region>
hivel=103
key=D4
lovel=78
offset=481
sample=Bass_a3_HardMallets_Center_Buzz_Stroke_F_D4_RR4.opus
</region>

<region>
hivel=127
key=D4
lovel=104
offset=481
sample=Bass_a3_HardMallets_Center_Buzz_Stroke_FF_D4_RR4.opus
</region>

<region>
hivel=77
key=D4
lovel=52
offset=481
sample=Bass_a3_HardMallets_Center_Buzz_Stroke_MF_D4_RR4.opus
</region>

<region>
hivel=51
key=D4
lovel=26
offset=481
sample=Bass_a3_HardMallets_Center_Buzz_Stroke_MP_D4_RR4.opus
</region>

<region>
hivel=25
key=D4
lovel=0
offset=483
sample=Bass_a3_HardMallets_Center_Buzz_Stroke_P_D4_RR4.opus
</region>

<region>
hivel=103
key=G4
lovel=78
offset=481
sample=Bass_a3_HardMallets_Center_Dry_Buzz_Stroke_F_D4_RR4.opus
</region>

<region>
hivel=127
key=G4
lovel=104
offset=481
sample=Bass_a3_HardMallets_Center_Dry_Buzz_Stroke_FF_D4_RR4.opus
</region>

<region>
hivel=77
key=G4
lovel=52
offset=481
sample=Bass_a3_HardMallets_Center_Dry_Buzz_Stroke_MF_D4_RR4.opus
</region>

<region>
hivel=51
key=G4
lovel=26
offset=482
sample=Bass_a3_HardMallets_Center_Dry_Buzz_Stroke_MP_D4_RR4.opus
</region>

<region>
hivel=25
key=G4
lovel=0
offset=483
sample=Bass_a3_HardMallets_Center_Dry_Buzz_Stroke_P_D4_RR4.opus
</region>

<region>
hivel=103
key=D5
lovel=78
offset=515
sample=Bass_a3_HardMallets_Center_Rim Shot_F_D4_RR4.opus
</region>

<region>
hivel=127
key=D5
lovel=104
offset=484
sample=Bass_a3_HardMallets_Center_Rim Shot_FF_D4_RR4.opus
</region>

<region>
hivel=77
key=D5
lovel=52
offset=381
sample=Bass_a3_HardMallets_Center_Rim Shot_MF_D4_RR4.opus
</region>

<region>
hivel=51
key=D5
lovel=26
offset=511
sample=Bass_a3_HardMallets_Center_Rim Shot_MP_D4_RR4.opus
</region>

<region>
hivel=25
key=D5
lovel=0
offset=5979
sample=Bass_a3_HardMallets_Center_Rim Shot_P_D4_RR4.opus
</region>

<region>
hivel=103
key=D#5
lovel=78
offset=5007
sample=Bass_a3_HardMallets_Center_Rim_Hit_F_D4_RR4.opus
</region>

<region>
hivel=127
key=D#5
lovel=104
offset=4822
sample=Bass_a3_HardMallets_Center_Rim_Hit_FF_D4_RR4.opus
</region>

<region>
hivel=77
key=D#5
lovel=52
offset=7564
sample=Bass_a3_HardMallets_Center_Rim_Hit_MF_D4_RR4.opus
</region>

<region>
hivel=51
key=D#5
lovel=26
offset=6972
sample=Bass_a3_HardMallets_Center_Rim_Hit_MP_D4_RR4.opus
</region>

<region>
hivel=25
key=D#5
lovel=0
offset=6126
sample=Bass_a3_HardMallets_Center_Rim_Hit_P_D4_RR4.opus
</region>

<region>
hivel=103
key=D6
lovel=78
offset=5639
sample=Bass_a3_HardMallets_Center_Shell_F_D4_RR4.opus
</region>

<region>
hivel=127
key=D6
lovel=104
offset=5642
sample=Bass_a3_HardMallets_Center_Shell_FF_D4_RR4.opus
</region>

<region>
hivel=77
key=D6
lovel=52
offset=7156
sample=Bass_a3_HardMallets_Center_Shell_MF_D4_RR4.opus
</region>

<region>
hivel=51
key=D6
lovel=26
offset=5995
sample=Bass_a3_HardMallets_Center_Shell_MP_D4_RR4.opus
</region>

<region>
hivel=25
key=D6
lovel=0
offset=5167
sample=Bass_a3_HardMallets_Center_Shell_P_D4_RR4.opus
</region>

<region>
hivel=103
key=E4
lovel=78
offset=480
sample=Bass_a3_HardMallets_Edge_Buzz_Stroke_F_D4_RR4.opus
</region>

<region>
hivel=127
key=E4
lovel=104
offset=480
sample=Bass_a3_HardMallets_Edge_Buzz_Stroke_FF_D4_RR4.opus
</region>

<region>
hivel=77
key=E4
lovel=52
offset=481
sample=Bass_a3_HardMallets_Edge_Buzz_Stroke_MF_D4_RR4.opus
</region>

<region>
hivel=51
key=E4
lovel=26
offset=1901
sample=Bass_a3_HardMallets_Edge_Buzz_Stroke_MP_D4_RR4.opus
</region>

<region>
hivel=25
key=E4
lovel=0
offset=6483
sample=Bass_a3_HardMallets_Edge_Buzz_Stroke_P_D4_RR4.opus
</region>

<region>
hivel=103
key=A4
lovel=78
offset=481
sample=Bass_a3_HardMallets_Edge_Dry_Buzz_Stroke_F_D4_RR4.opus
</region>

<region>
hivel=127
key=A4
lovel=104
offset=481
sample=Bass_a3_HardMallets_Edge_Dry_Buzz_Stroke_FF_D4_RR4.opus
</region>

<region>
hivel=77
key=A4
lovel=52
offset=481
sample=Bass_a3_HardMallets_Edge_Dry_Buzz_Stroke_MF_D4_RR4.opus
</region>

<region>
hivel=51
key=A4
lovel=26
offset=4431
sample=Bass_a3_HardMallets_Edge_Dry_Buzz_Stroke_MP_D4_RR4.opus
</region>

<region>
hivel=25
key=A4
lovel=0
offset=5495
sample=Bass_a3_HardMallets_Edge_Dry_Buzz_Stroke_P_D4_RR4.opus
</region>

<region>
hivel=103
key=D#4
lovel=78
offset=481
sample=Bass_a3_HardMallets_Halfway_Buzz_Stroke_F_D4_RR4.opus
</region>

<region>
hivel=127
key=D#4
lovel=104
offset=481
sample=Bass_a3_HardMallets_Halfway_Buzz_Stroke_FF_D4_RR4.opus
</region>

<region>
hivel=77
key=D#4
lovel=52
offset=481
sample=Bass_a3_HardMallets_Halfway_Buzz_Stroke_MF_D4_RR4.opus
</region>

<region>
hivel=51
key=D#4
lovel=26
offset=481
sample=Bass_a3_HardMallets_Halfway_Buzz_Stroke_MP_D4_RR4.opus
</region>

<region>
hivel=25
key=D#4
lovel=0
offset=481
sample=Bass_a3_HardMallets_Halfway_Buzz_Stroke_P_D4_RR4.opus
</region>

<region>
hivel=103
key=G#4
lovel=78
offset=481
sample=Bass_a3_HardMallets_Halfway_Dry_Buzz_Stroke_F_D4_RR4.opus
</region>

<region>
hivel=127
key=G#4
lovel=104
offset=481
sample=Bass_a3_HardMallets_Halfway_Dry_Buzz_Stroke_FF_D4_RR4.opus
</region>

<region>
hivel=77
key=G#4
lovel=52
offset=481
sample=Bass_a3_HardMallets_Halfway_Dry_Buzz_Stroke_MF_D4_RR4.opus
</region>

<region>
hivel=51
key=G#4
lovel=26
offset=481
sample=Bass_a3_HardMallets_Halfway_Dry_Buzz_Stroke_MP_D4_RR4.opus
</region>

<region>
hivel=25
key=G#4
lovel=0
offset=1275
sample=Bass_a3_HardMallets_Halfway_Dry_Buzz_Stroke_P_D4_RR4.opus
</region>
</group>

<group>
amp_veltrack=0
ampeg_attack=0.001
ampeg_release=0.05
group_label=Rolls_RR1_0-25
seq_length=2
seq_position=1
xfin_hicc1=25
xfout_hicc1=50
xfout_locc1=25

<region>
hivel=127
key=D2
loop_end=116397
loop_mode=loop_continuous
loop_start=28764
loop_xfade=21631
lovel=1
offset=484
sample=Bass_a3_HardMallets_Center_Buzz_Roll_P_D4_RR1.opus
</region>

<region>
hivel=127
key=F2
loop_end=116397
loop_mode=loop_continuous
loop_start=26329
loop_xfade=21631
lovel=1
offset=6104
sample=Bass_a3_HardMallets_Center_Rim_Buzz_Roll_P_D4_RR1.opus
</region>

<region>
hivel=127
key=D#2
loop_end=116397
loop_mode=loop_continuous
loop_start=28926
loop_xfade=21631
lovel=1
offset=484
sample=Bass_a3_HardMallets_Edge_Buzz_Roll_P_D4_RR1.opus
</region>

<region>
hivel=127
key=E2
loop_end=116397
loop_mode=loop_continuous
loop_start=29684
loop_xfade=21631
lovel=1
offset=484
sample=Bass_a3_HardMallets_Halfway_Buzz_Roll_P_D4_RR1.opus
</region>
</group>

<group>
amp_veltrack=0
ampeg_attack=0.001
ampeg_release=0.05
group_label=Rolls_RR1_26-51
seq_length=2
seq_position=1
xfin_hicc1=51
xfin_locc1=26
xfout_hicc1=76
xfout_locc1=51

<region>
hivel=127
key=D2
loop_end=113102
loop_mode=loop_continuous
loop_start=21019
loop_xfade=21019
lovel=1
offset=486
sample=Bass_a3_HardMallets_Center_Buzz_Roll_MP_D4_RR1.opus
</region>

<region>
hivel=127
key=F2
loop_end=116397
loop_mode=loop_continuous
loop_start=27307
loop_xfade=21631
lovel=1
offset=5349
sample=Bass_a3_HardMallets_Center_Rim_Buzz_Roll_MP_D4_RR1.opus
</region>

<region>
hivel=127
key=D#2
loop_end=116397
loop_mode=loop_continuous
loop_start=29619
loop_xfade=21631
lovel=1
offset=482
sample=Bass_a3_HardMallets_Edge_Buzz_Roll_MP_D4_RR1.opus
</region>

<region>
hivel=127
key=E2
loop_end=112873
loop_mode=loop_continuous
loop_start=20976
loop_xfade=20976
lovel=1
offset=482
sample=Bass_a3_HardMallets_Halfway_Buzz_Roll_MP_D4_RR1.opus
</region>
</group>

<group>
amp_veltrack=0
ampeg_attack=0.001
ampeg_release=0.05
group_label=Rolls_RR1_52-77
seq_length=2
seq_position=1
xfin_hicc1=77
xfin_locc1=52
xfout_hicc1=102
xfout_locc1=77

<region>
hivel=127
key=D2
loop_end=113656
loop_mode=loop_continuous
loop_start=21122
loop_xfade=21122
lovel=1
offset=482
sample=Bass_a3_HardMallets_Center_Buzz_Roll_MF_D4_RR1.opus
</region>

<region>
hivel=127
key=F2
loop_end=116397
loop_mode=loop_continuous
loop_start=27804
loop_xfade=21631
lovel=1
offset=4991
sample=Bass_a3_HardMallets_Center_Rim_Buzz_Roll_MF_D4_RR1.opus
</region>

<region>
hivel=127
key=D#2
loop_end=114125
loop_mode=loop_continuous
loop_start=21209
loop_xfade=21209
lovel=1
offset=481
sample=Bass_a3_HardMallets_Edge_Buzz_Roll_MF_D4_RR1.opus
</region>

<region>
hivel=127
key=E2
loop_end=113283
loop_mode=loop_continuous
loop_start=21052
loop_xfade=21052
lovel=1
offset=481
sample=Bass_a3_HardMallets_Halfway_Buzz_Roll_MF_D4_RR1.opus
</region>
</group>

<group>
amp_veltrack=0
ampeg_attack=0.001
ampeg_release=0.05
group_label=Rolls_RR1_78-103
seq_length=2
seq_position=1
xfin_hicc1=103
xfin_locc1=78
xfout_hicc1=127
xfout_locc1=103

<region>
hivel=127
key=D2
loop_end=113106
loop_mode=loop_continuous
loop_start=21019
loop_xfade=21019
lovel=1
offset=482
sample=Bass_a3_HardMallets_Center_Buzz_Roll_F_D4_RR1.opus
</region>

<region>
hivel=127
key=F2
loop_end=113154
loop_mode=loop_continuous
loop_start=21028
loop_xfade=21028
lovel=1
offset=428
sample=Bass_a3_HardMallets_Center_Rim_Buzz_Roll_F_D4_RR1.opus
</region>

<region>
hivel=127
key=D#2
loop_end=114985
loop_mode=loop_continuous
loop_start=25068
loop_xfade=21369
lovel=1
offset=480
sample=Bass_a3_HardMallets_Edge_Buzz_Roll_F_D4_RR1.opus
</region>

<region>
hivel=127
key=E2
loop_end=113270
loop_mode=loop_continuous
loop_start=21050
loop_xfade=21050
lovel=1
offset=481
sample=Bass_a3_HardMallets_Halfway_Buzz_Roll_F_D4_RR1.opus
</region>
</group>

<group>
amp_veltrack=0
ampeg_attack=0.001
ampeg_release=0.05
group_label=Rolls_RR1_104-127
seq_length=2
seq_position=1
xfin_hicc1=127
xfin_locc1=104
xfout_hicc1=127
xfout_locc1=127

<region>
hivel=127
key=D2
loop_end=113296
loop_mode=loop_continuous
loop_start=21055
loop_xfade=21055
lovel=1
offset=481
sample=Bass_a3_HardMallets_Center_Buzz_Roll_FF_D4_RR1.opus
</region>

<region>
hivel=127
key=F2
loop_end=113421
loop_mode=loop_continuous
loop_start=21078
loop_xfade=21078
lovel=1
offset=472
sample=Bass_a3_HardMallets_Center_Rim_Buzz_Roll_FF_D4_RR1.opus
</region>

<region>
hivel=127
key=D#2
loop_end=113521
loop_mode=loop_continuous
loop_start=21097
loop_xfade=21097
lovel=1
offset=481
sample=Bass_a3_HardMallets_Edge_Buzz_Roll_FF_D4_RR1.opus
</region>

<region>
hivel=127
key=E2
loop_end=114570
loop_mode=loop_continuous
loop_start=21292
loop_xfade=21292
lovel=1
offset=482
sample=Bass_a3_HardMallets_Halfway_Buzz_Roll_FF_D4_RR1.opus
</region>
</group>

<group>
amp_veltrack=0
ampeg_attack=0.001
ampeg_release=0.05
group_label=Rolls_RR2_0-25
seq_length=2
seq_position=2
xfin_hicc1=25
xfout_hicc1=50
xfout_locc1=25

<region>
hivel=127
key=D2
loop_end=116397
loop_mode=loop_continuous
loop_start=27364
loop_xfade=21631
lovel=1
offset=484
sample=Bass_a3_HardMallets_Center_Buzz_Roll_P_D4_RR2.opus
</region>

<region>
hivel=127
key=F2
loop_end=116397
loop_mode=loop_continuous
loop_start=26023
loop_xfade=21631
lovel=1
offset=5484
sample=Bass_a3_HardMallets_Center_Rim_Buzz_Roll_P_D4_RR2.opus
</region>

<region>
hivel=127
key=D#2
loop_end=116397
loop_mode=loop_continuous
loop_start=28435
loop_xfade=21631
lovel=1
offset=483
sample=Bass_a3_HardMallets_Edge_Buzz_Roll_P_D4_RR2.opus
</region>

<region>
hivel=127
key=E2
loop_end=116397
loop_mode=loop_continuous
loop_start=28555
loop_xfade=21631
lovel=1
offset=486
sample=Bass_a3_HardMallets_Halfway_Buzz_Roll_P_D4_RR2.opus
</region>
</group>

<group>
amp_veltrack=0
ampeg_attack=0.001
ampeg_release=0.05
group_label=Rolls_RR2_26-51
seq_length=2
seq_position=2
xfin_hicc1=51
xfin_locc1=26
xfout_hicc1=76
xfout_locc1=51

<region>
hivel=127
key=D2
loop_end=112904
loop_mode=loop_continuous
loop_start=20982
loop_xfade=20982
lovel=1
offset=482
sample=Bass_a3_HardMallets_Center_Buzz_Roll_MP_D4_RR2.opus
</region>

<region>
hivel=127
key=F2
loop_end=116397
loop_mode=loop_continuous
loop_start=27664
loop_xfade=21631
lovel=1
offset=5088
sample=Bass_a3_HardMallets_Center_Rim_Buzz_Roll_MP_D4_RR2.opus
</region>

<region>
hivel=127
key=D#2
loop_end=113425
loop_mode=loop_continuous
loop_start=21079
loop_xfade=21079
lovel=1
offset=481
sample=Bass_a3_HardMallets_Edge_Buzz_Roll_MP_D4_RR2.opus
</region>

<region>
hivel=127
key=E2
loop_end=112540
loop_mode=loop_continuous
loop_start=20914
loop_xfade=20914
lovel=1
offset=482
sample=Bass_a3_HardMallets_Halfway_Buzz_Roll_MP_D4_RR2.opus
</region>
</group>

<group>
amp_veltrack=0
ampeg_attack=0.001
ampeg_release=0.05
group_label=Rolls_RR2_52-77
seq_length=2
seq_position=2
xfin_hicc1=77
xfin_locc1=52
xfout_hicc1=102
xfout_locc1=77

<region>
hivel=127
key=D2
loop_end=112191
loop_mode=loop_continuous
loop_start=20849
loop_xfade=20849
lovel=1
offset=483
sample=Bass_a3_HardMallets_Center_Buzz_Roll_MF_D4_RR2.opus
</region>

<region>
hivel=127
key=F2
loop_end=115953
loop_mode=loop_continuous
loop_start=21549
loop_xfade=21549
lovel=1
offset=4892
sample=Bass_a3_HardMallets_Center_Rim_Buzz_Roll_MF_D4_RR2.opus
</region>

<region>
hivel=127
key=D#2
loop_end=113900
loop_mode=loop_continuous
loop_start=21167
loop_xfade=21167
lovel=1
offset=481
sample=Bass_a3_HardMallets_Edge_Buzz_Roll_MF_D4_RR2.opus
</region>

<region>
hivel=127
key=E2
loop_end=113291
loop_mode=loop_continuous
loop_start=21054
loop_xfade=21054
lovel=1
offset=481
sample=Bass_a3_HardMallets_Halfway_Buzz_Roll_MF_D4_RR2.opus
</region>
</group>

<group>
amp_veltrack=0
ampeg_attack=0.001
ampeg_release=0.05
group_label=Rolls_RR2_78-103
seq_length=2
seq_position=2
xfin_hicc1=103
xfin_locc1=78
xfout_hicc1=127
xfout_locc1=103

<region>
hivel=127
key=D2
loop_end=113538
loop_mode=loop_continuous
loop_start=21100
loop_xfade=21100
lovel=1
offset=482
sample=Bass_a3_HardMallets_Center_Buzz_Roll_F_D4_RR2.opus
</region>

<region>
hivel=127
key=F2
loop_end=113030
loop_mode=loop_continuous
loop_start=21005
loop_xfade=21005
lovel=1
offset=382
sample=Bass_a3_HardMallets_Center_Rim_Buzz_Roll_F_D4_RR2.opus
</region>

<region>
hivel=127
key=D#2
loop_end=112850
loop_mode=loop_continuous
loop_start=20972
loop_xfade=20972
lovel=1
offset=481
sample=Bass_a3_HardMallets_Edge_Buzz_Roll_F_D4_RR2.opus
</region>

<region>
hivel=127
key=E2
loop_end=113655
loop_mode=loop_continuous
loop_start=21122
loop_xfade=21122
lovel=1
offset=481
sample=Bass_a3_HardMallets_Halfway_Buzz_Roll_F_D4_RR2.opus
</region>
</group>

<group>
amp_veltrack=0
ampeg_attack=0.001
ampeg_release=0.05
group_label=Rolls_RR2_104-127
seq_length=2
seq_position=2
xfin_hicc1=127
xfin_locc1=104
xfout_hicc1=127
xfout_locc1=127

<region>
hivel=127
key=D2
loop_end=113141
loop_mode=loop_continuous
loop_start=21026
loop_xfade=21026
lovel=1
offset=482
sample=Bass_a3_HardMallets_Center_Buzz_Roll_FF_D4_RR2.opus
</region>

<region>
hivel=127
key=F2
loop_end=113784
loop_mode=loop_continuous
loop_start=21145
loop_xfade=21145
lovel=1
offset=480
sample=Bass_a3_HardMallets_Center_Rim_Buzz_Roll_FF_D4_RR2.opus
</region>

<region>
hivel=127
key=D#2
loop_end=112249
loop_mode=loop_continuous
loop_start=20860
loop_xfade=20860
lovel=1
offset=480
sample=Bass_a3_HardMallets_Edge_Buzz_Roll_FF_D4_RR2.opus
</region>

<region>
hivel=127
key=E2
loop_end=114107
loop_mode=loop_continuous
loop_start=21206
loop_xfade=21206
lovel=1
offset=481
sample=Bass_a3_HardMallets_Halfway_Buzz_Roll_FF_D4_RR2.opus
</region>
</group>

<group>
amp_veltrack=0
ampeg_attack=0.01
ampeg_release=0.65
group_label=Rolls_Release_RR1_0-25
seq_length=2
seq_position=1
trigger=release
xfin_hicc1=25
xfout_hicc1=50
xfout_locc1=25

<region>
hivel=127
key=D2
lovel=1
offset=128264
sample=Bass_a3_HardMallets_Center_Buzz_Roll_P_D4_RR1.opus
</region>

<region>
hivel=127
key=F2
lovel=1
offset=127359
sample=Bass_a3_HardMallets_Center_Rim_Buzz_Roll_P_D4_RR1.opus
</region>

<region>
hivel=127
key=D#2
lovel=1
offset=134277
sample=Bass_a3_HardMallets_Edge_Buzz_Roll_P_D4_RR1.opus
</region>

<region>
hivel=127
key=E2
lovel=1
offset=130073
sample=Bass_a3_HardMallets_Halfway_Buzz_Roll_P_D4_RR1.opus
</region>
</group>

<group>
amp_veltrack=0
ampeg_attack=0.01
ampeg_release=0.65
group_label=Rolls_Release_RR1_26-51
seq_length=2
seq_position=1
trigger=release
xfin_hicc1=51
xfin_locc1=26
xfout_hicc1=76
xfout_locc1=51

<region>
hivel=127
key=D2
lovel=1
offset=125448
sample=Bass_a3_HardMallets_Center_Buzz_Roll_MP_D4_RR1.opus
</region>

<region>
hivel=127
key=F2
lovel=1
offset=128110
sample=Bass_a3_HardMallets_Center_Rim_Buzz_Roll_MP_D4_RR1.opus
</region>

<region>
hivel=127
key=D#2
lovel=1
offset=131288
sample=Bass_a3_HardMallets_Edge_Buzz_Roll_MP_D4_RR1.opus
</region>

<region>
hivel=127
key=E2
lovel=1
offset=124594
sample=Bass_a3_HardMallets_Halfway_Buzz_Roll_MP_D4_RR1.opus
</region>
</group>

<group>
amp_veltrack=0
ampeg_attack=0.01
ampeg_release=0.65
group_label=Rolls_Release_RR1_52-77
seq_length=2
seq_position=1
trigger=release
xfin_hicc1=77
xfin_locc1=52
xfout_hicc1=102
xfout_locc1=77

<region>
hivel=127
key=D2
lovel=1
offset=124026
sample=Bass_a3_HardMallets_Center_Buzz_Roll_MF_D4_RR1.opus
</region>

<region>
hivel=127
key=F2
lovel=1
offset=128690
sample=Bass_a3_HardMallets_Center_Rim_Buzz_Roll_MF_D4_RR1.opus
</region>

<region>
hivel=127
key=D#2
lovel=1
offset=126485
sample=Bass_a3_HardMallets_Edge_Buzz_Roll_MF_D4_RR1.opus
</region>

<region>
hivel=127
key=E2
lovel=1
offset=128754
sample=Bass_a3_HardMallets_Halfway_Buzz_Roll_MF_D4_RR1.opus
</region>
</group>

<group>
amp_veltrack=0
ampeg_attack=0.01
ampeg_release=0.65
group_label=Rolls_Release_RR1_78-103
seq_length=2
seq_position=1
trigger=release
xfin_hicc1=103
xfin_locc1=78
xfout_hicc1=127
xfout_locc1=103

<region>
hivel=127
key=D2
lovel=1
offset=127568
sample=Bass_a3_HardMallets_Center_Buzz_Roll_F_D4_RR1.opus
</region>

<region>
hivel=127
key=F2
lovel=1
offset=124792
sample=Bass_a3_HardMallets_Center_Rim_Buzz_Roll_F_D4_RR1.opus
</region>

<region>
hivel=127
key=D#2
lovel=1
offset=130470
sample=Bass_a3_HardMallets_Edge_Buzz_Roll_F_D4_RR1.opus
</region>

<region>
hivel=127
key=E2
lovel=1
offset=127811
sample=Bass_a3_HardMallets_Halfway_Buzz_Roll_F_D4_RR1.opus
</region>
</group>

<group>
amp_veltrack=0
ampeg_attack=0.01
ampeg_release=0.65
group_label=Rolls_Release_RR1_104-127
seq_length=2
seq_position=1
trigger=release
xfin_hicc1=127
xfin_locc1=104
xfout_hicc1=127
xfout_locc1=127

<region>
hivel=127
key=D2
lovel=1
offset=127306
sample=Bass_a3_HardMallets_Center_Buzz_Roll_FF_D4_RR1.opus
</region>

<region>
hivel=127
key=F2
lovel=1
offset=123825
sample=Bass_a3_HardMallets_Center_Rim_Buzz_Roll_FF_D4_RR1.opus
</region>

<region>
hivel=127
key=D#2
lovel=1
offset=128257
sample=Bass_a3_HardMallets_Edge_Buzz_Roll_FF_D4_RR1.opus
</region>

<region>
hivel=127
key=E2
lovel=1
offset=129794
sample=Bass_a3_HardMallets_Halfway_Buzz_Roll_FF_D4_RR1.opus
</region>
</group>

<group>
amp_veltrack=0
ampeg_attack=0.01
ampeg_release=0.65
group_label=Rolls_Release_RR2_0-25
seq_length=2
seq_position=2
trigger=release
xfin_hicc1=25
xfout_hicc1=50
xfout_locc1=25

<region>
hivel=127
key=D2
lovel=1
offset=129499
sample=Bass_a3_HardMallets_Center_Buzz_Roll_P_D4_RR2.opus
</region>

<region>
hivel=127
key=F2
lovel=1
offset=128265
sample=Bass_a3_HardMallets_Center_Rim_Buzz_Roll_P_D4_RR2.opus
</region>

<region>
hivel=127
key=D#2
lovel=1
offset=133206
sample=Bass_a3_HardMallets_Edge_Buzz_Roll_P_D4_RR2.opus
</region>

<region>
hivel=127
key=E2
lovel=1
offset=131300
sample=Bass_a3_HardMallets_Halfway_Buzz_Roll_P_D4_RR2.opus
</region>
</group>

<group>
amp_veltrack=0
ampeg_attack=0.01
ampeg_release=0.65
group_label=Rolls_Release_RR2_26-51
seq_length=2
seq_position=2
trigger=release
xfin_hicc1=51
xfin_locc1=26
xfout_hicc1=76
xfout_locc1=51

<region>
hivel=127
key=D2
lovel=1
offset=124968
sample=Bass_a3_HardMallets_Center_Buzz_Roll_MP_D4_RR2.opus
</region>

<region>
hivel=127
key=F2
lovel=1
offset=128971
sample=Bass_a3_HardMallets_Center_Rim_Buzz_Roll_MP_D4_RR2.opus
</region>

<region>
hivel=127
key=D#2
lovel=1
offset=128295
sample=Bass_a3_HardMallets_Edge_Buzz_Roll_MP_D4_RR2.opus
</region>

<region>
hivel=127
key=E2
lovel=1
offset=124275
sample=Bass_a3_HardMallets_Halfway_Buzz_Roll_MP_D4_RR2.opus
</region>
</group>

<group>
amp_veltrack=0
ampeg_attack=0.01
ampeg_release=0.65
group_label=Rolls_Release_RR2_52-77
seq_length=2
seq_position=2
trigger=release
xfin_hicc1=77
xfin_locc1=52
xfout_hicc1=102
xfout_locc1=77

<region>
hivel=127
key=D2
lovel=1
offset=123198
sample=Bass_a3_HardMallets_Center_Buzz_Roll_MF_D4_RR2.opus
</region>

<region>
hivel=127
key=F2
lovel=1
offset=128164
sample=Bass_a3_HardMallets_Center_Rim_Buzz_Roll_MF_D4_RR2.opus
</region>

<region>
hivel=127
key=D#2
lovel=1
offset=126474
sample=Bass_a3_HardMallets_Edge_Buzz_Roll_MF_D4_RR2.opus
</region>

<region>
hivel=127
key=E2
lovel=1
offset=128184
sample=Bass_a3_HardMallets_Halfway_Buzz_Roll_MF_D4_RR2.opus
</region>
</group>

<group>
amp_veltrack=0
ampeg_attack=0.01
ampeg_release=0.65
group_label=Rolls_Release_RR2_78-103
seq_length=2
seq_position=2
trigger=release
xfin_hicc1=103
xfin_locc1=78
xfout_hicc1=127
xfout_locc1=103

<region>
hivel=127
key=D2
lovel=1
offset=128637
sample=Bass_a3_HardMallets_Center_Buzz_Roll_F_D4_RR2.opus
</region>

<region>
hivel=127
key=F2
lovel=1
offset=123840
sample=Bass_a3_HardMallets_Center_Rim_Buzz_Roll_F_D4_RR2.opus
</region>

<region>
hivel=127
key=D#2
lovel=1
offset=123574
sample=Bass_a3_HardMallets_Edge_Buzz_Roll_F_D4_RR2.opus
</region>

<region>
hivel=127
key=E2
lovel=1
offset=129881
sample=Bass_a3_HardMallets_Halfway_Buzz_Roll_F_D4_RR2.opus
</region>
</group>

<group>
amp_veltrack=0
ampeg_attack=0.01
ampeg_release=0.65
group_label=Rolls_Release_RR2_104-127
seq_length=2
seq_position=2
trigger=release
xfin_hicc1=127
xfin_locc1=104
xfout_hicc1=127
xfout_locc1=127

<region>
hivel=127
key=D2
lovel=1
offset=128399
sample=Bass_a3_HardMallets_Center_Buzz_Roll_FF_D4_RR2.opus
</region>

<region>
hivel=127
key=F2
lovel=1
offset=124307
sample=Bass_a3_HardMallets_Center_Rim_Buzz_Roll_FF_D4_RR2.opus
</region>

<region>
hivel=127
key=D#2
lovel=1
offset=126725
sample=Bass_a3_HardMallets_Edge_Buzz_Roll_FF_D4_RR2.opus
</region>

<region>
hivel=127
key=E2
lovel=1
offset=128599
sample=Bass_a3_HardMallets_Halfway_Buzz_Roll_FF_D4_RR2.opus
</region>
</group>